<svg width="26" height="24" viewBox="0 0 26 24" fill="none" xmlns="http://www.w3.org/2000/svg">
  <path d="M13.5005 2.07803C12.1348 0.741719 10.3472 6.20921e-05 8.49187 0C7.50986 0.00108797 6.53775 0.208816 5.63148 0.611228C4.72521 1.01364 3.90267 1.60279 3.2112 2.34478C0.261891 5.4965 0.263144 10.4261 3.2137 13.5645L12.4038 23.3438C12.6169 23.7426 13.028 24 13.5005 24C13.6946 23.998 13.8855 23.9476 14.0579 23.8529C14.2303 23.7581 14.3794 23.6217 14.4933 23.4545L23.7874 13.5645C26.738 10.4248 26.738 5.4965 23.7849 2.33945C23.0938 1.59882 22.2719 1.01087 21.3665 0.609381C20.4611 0.207895 19.4901 0.000799742 18.5092 0C16.6539 0.00032272 14.8664 0.741944 13.5005 2.07803ZM22.0125 4.22541C23.9716 6.32077 23.9729 9.59387 22.0151 11.6786L13.5005 20.7389L4.98604 11.6786C3.0282 9.59387 3.02945 6.32077 4.98354 4.23074C5.93614 3.22241 7.18204 2.66756 8.49187 2.66756C9.8017 2.66756 11.0426 3.22241 11.9877 4.22808L12.6144 4.89497C12.7307 5.01893 12.8688 5.11728 13.0209 5.18439C13.1729 5.25149 13.3359 5.28603 13.5005 5.28603C13.6652 5.28603 13.8282 5.25149 13.9802 5.18439C14.1323 5.11728 14.2704 5.01893 14.3867 4.89497L15.0134 4.22808C16.9086 2.21541 20.1199 2.22074 22.0125 4.22541Z" fill="#F17E00" />
</svg>