<svg width="26" height="24" viewBox="0 0 26 24" fill="none" xmlns="http://www.w3.org/2000/svg">
  <path d="M13 0C9.82997 0.0404258 6.80115 1.31765 4.55942 3.55931C2.31769 5.80097 1.04043 8.82968 1 11.9996C1.01482 13.8462 1.45566 15.6646 2.28821 17.3129C3.12076 18.9613 4.32255 20.3953 5.8 21.5033V21.5993H5.92C7.95182 23.1562 10.4402 24 13 24C15.5598 24 18.0482 23.1562 20.08 21.5993H20.2V21.5033C21.6775 20.3953 22.8792 18.9613 23.7118 17.3129C24.5443 15.6646 24.9852 13.8462 25 11.9996C24.9596 8.82968 23.6823 5.80097 21.4406 3.55931C19.1988 1.31765 16.17 0.0404258 13 0ZM8.284 20.3153C8.45918 19.5131 8.90338 18.7949 9.5429 18.2798C10.1824 17.7647 10.9788 17.4837 11.8 17.4834H14.2C15.0212 17.4837 15.8176 17.7647 16.4571 18.2798C17.0966 18.7949 17.5408 19.5131 17.716 20.3153C16.2866 21.1563 14.6584 21.5997 13 21.5997C11.3416 21.5997 9.71336 21.1563 8.284 20.3153ZM19.732 18.7674C19.2756 17.6766 18.5069 16.7449 17.5227 16.0895C16.5385 15.4341 15.3825 15.0841 14.2 15.0835H11.8C10.6175 15.0841 9.46153 15.4341 8.47729 16.0895C7.49306 16.7449 6.72445 17.6766 6.268 18.7674C5.3688 17.883 4.65268 16.8301 4.16058 15.6689C3.66847 14.5076 3.41002 13.2608 3.4 11.9996C3.43113 9.46328 4.45254 7.03961 6.24619 5.24602C8.03984 3.45243 10.4636 2.43105 13 2.39992C15.5364 2.43105 17.9602 3.45243 19.7538 5.24602C21.5475 7.03961 22.5689 9.46328 22.6 11.9996C22.59 13.2608 22.3315 14.5076 21.8394 15.6689C21.3473 16.8301 20.6312 17.883 19.732 18.7674Z" fill="#F17E00" />
  <path d="M13.0005 4.8001C12.3661 4.78532 11.7353 4.89938 11.1463 5.13536C10.5572 5.37134 10.0222 5.72435 9.57347 6.17304C9.12477 6.62172 8.77175 7.15676 8.53576 7.74578C8.29977 8.33481 8.18571 8.96558 8.20049 9.59995C8.18571 10.2343 8.29977 10.8651 8.53576 11.4541C8.77175 12.0431 9.12477 12.5782 9.57347 13.0269C10.0222 13.4755 10.5572 13.8285 11.1463 14.0645C11.7353 14.3005 12.3661 14.4146 13.0005 14.3998C13.6349 14.4146 14.2657 14.3005 14.8547 14.0645C15.4438 13.8285 15.9788 13.4755 16.4275 13.0269C16.8762 12.5782 17.2292 12.0431 17.4652 11.4541C17.7012 10.8651 17.8153 10.2343 17.8005 9.59995C17.8153 8.96558 17.7012 8.33481 17.4652 7.74578C17.2292 7.15676 16.8762 6.62172 16.4275 6.17304C15.9788 5.72435 15.4438 5.37134 14.8547 5.13536C14.2657 4.89938 13.6349 4.78532 13.0005 4.8001ZM13.0005 11.9999C12.6812 12.0153 12.3623 11.9638 12.0641 11.8486C11.7659 11.7335 11.4951 11.5573 11.2691 11.3313C11.0431 11.1052 10.8669 10.8345 10.7517 10.5363C10.6366 10.2381 10.5851 9.91919 10.6005 9.59995C10.5851 9.2807 10.6366 8.96175 10.7517 8.66359C10.8669 8.36543 11.0431 8.09465 11.2691 7.86864C11.4951 7.64263 11.7659 7.46639 12.0641 7.35125C12.3623 7.2361 12.6812 7.18459 13.0005 7.20002C13.3198 7.18459 13.6387 7.2361 13.9369 7.35125C14.2351 7.46639 14.5058 7.64263 14.7319 7.86864C14.9579 8.09465 15.1341 8.36543 15.2493 8.66359C15.3644 8.96175 15.4159 9.2807 15.4005 9.59995C15.4159 9.91919 15.3644 10.2381 15.2493 10.5363C15.1341 10.8345 14.9579 11.1052 14.7319 11.3313C14.5058 11.5573 14.2351 11.7335 13.9369 11.8486C13.6387 11.9638 13.3198 12.0153 13.0005 11.9999Z" fill="#F17E00" />
</svg>