<svg width="22" height="22" viewBox="0 0 22 22" fill="none" xmlns="http://www.w3.org/2000/svg">
  <g clip-path="url(#clip0_1599_894)">
    <path d="M11.9805 5.24072L15.1233 10.2693" stroke="#F17E00" stroke-width="2.5" />
    <path d="M6.32422 5.24072L9.46708 10.2693" stroke="#F17E00" stroke-width="2.5" />
    <path d="M20.1133 10.686V10.0574C20.1133 7.28016 17.862 5.02881 15.0848 5.02881H6.91334C4.13613 5.02881 1.88477 7.28016 1.88477 10.0574V10.686" stroke="#F17E00" stroke-width="2.5" />
    <path d="M19.4852 10.2144H2.51373C1.55906 10.2144 0.785156 10.9883 0.785156 11.9429V15.0858C0.785156 16.0404 1.55906 16.8144 2.51373 16.8144H19.4852C20.4398 16.8144 21.2137 16.0404 21.2137 15.0858V11.9429C21.2137 10.9883 20.4398 10.2144 19.4852 10.2144Z" stroke="#F0D500" stroke-width="2.5" />
    <mask id="mask0_1599_894" style="mask-type:alpha" maskUnits="userSpaceOnUse" x="8" y="9" width="6" height="9">
      <path d="M8.17188 10.6859C8.17188 9.99153 8.7347 9.42871 9.42902 9.42871H12.5719C13.2662 9.42871 13.829 9.99153 13.829 10.6859V17.6001H8.17188V10.6859Z" fill="white" />
    </mask>
    <g mask="url(#mask0_1599_894)">
      <path d="M8.17188 10.6859C8.17188 9.99153 8.7347 9.42871 9.42902 9.42871H12.5719C13.2662 9.42871 13.829 9.99153 13.829 10.6859V17.6001H8.17188V10.6859Z" stroke="#8DBF33" stroke-width="5" />
    </g>
  </g>
  <defs>
    <clipPath id="clip0_1599_894">
      <rect width="22" height="22" fill="white" />
    </clipPath>
  </defs>
</svg>