<svg width="22" height="22" viewBox="0 0 22 22" fill="none" xmlns="http://www.w3.org/2000/svg">
  <g clip-path="url(#clip0_1599_906)">
    <path d="M17.2439 0.00875591C17.5756 0.105095 17.9159 0.0919585 18.252 0.135749C19.1395 0.249604 20.0184 0.424766 20.8801 0.66999C21.1343 0.744433 21.298 0.919598 21.3712 1.17358C21.6513 2.18513 21.8538 3.20983 21.9313 4.25642C22.0132 5.33804 22.0347 6.42844 21.9184 7.50567C21.6771 9.74337 20.9059 11.749 19.342 13.3955C19.0189 13.737 18.6139 13.7458 18.2822 13.4086C15.1285 10.2075 11.9791 7.00209 8.82542 3.79662C8.49366 3.45944 8.50661 3.05218 8.84698 2.71938C10.3161 1.27868 12.0911 0.494831 14.0901 0.175162C14.465 0.113855 14.8441 0.0788223 15.2189 0.0437903C15.2534 0.0394113 15.2922 0.0394113 15.3094 0C15.9513 0.00875808 16.5976 0.00875591 17.2439 0.00875591ZM20.4536 8.13625C20.5828 7.48375 20.6474 6.81816 20.6474 6.15254C20.6474 5.53072 20.6604 4.9089 20.5656 4.29146C20.5139 3.52074 20.3545 2.76755 20.1907 2.01435C20.1649 1.89174 20.0873 1.87423 19.9969 1.85233C18.1055 1.40129 16.1969 1.23927 14.2668 1.54142C12.8407 1.76475 11.531 2.27271 10.385 3.18356C10.2558 3.28427 10.2601 3.33244 10.3678 3.44192C13.1251 6.24012 15.8825 9.04271 18.6397 11.8497C18.7475 11.9592 18.7992 11.9635 18.8983 11.8322C19.7298 10.7374 20.2166 9.48935 20.4536 8.13625Z" fill="#8DBF33" />
    <path d="M7.6578 4.82568C7.79137 4.83883 7.92494 4.87386 8.03268 4.96143C8.10157 5.01398 8.16619 5.07529 8.22653 5.1366C11.139 8.09681 14.0514 11.057 16.9638 14.0173C17.0155 14.0698 17.0672 14.1224 17.1103 14.1793C17.3817 14.534 17.3128 14.9894 16.9293 15.2083C16.0289 15.7207 15.0682 16.106 14.0815 16.4082C13.8402 16.4827 13.6292 16.417 13.4439 16.255C13.3879 16.2068 13.3405 16.1542 13.2888 16.1017C10.9235 13.6976 8.56257 11.2891 6.18869 8.89382C5.87418 8.57853 5.79663 8.26324 5.94743 7.8341C6.24901 6.96265 6.58074 6.10436 7.00295 5.28549C7.14514 5.00522 7.34333 4.8432 7.6578 4.82568ZM15.4214 14.4333C12.8838 11.854 10.3548 9.28354 7.82582 6.71304C7.66214 7.0634 7.53718 7.43997 7.38638 7.80784C7.30454 8.01362 7.3476 8.12313 7.49412 8.27199C9.4975 10.2951 11.4922 12.327 13.487 14.3545C13.655 14.5252 13.823 14.6917 13.9868 14.8624C14.0428 14.9194 14.0858 14.9675 14.1892 14.9325C14.6028 14.7792 15.0164 14.6216 15.4214 14.4333Z" fill="#F17E00" />
    <path d="M7.99474 17.1792C8.18859 17.8098 8.29626 18.4491 8.24887 19.1147C8.16276 20.3102 7.70176 21.3349 6.87456 22.1844C6.62037 22.4471 6.23692 22.469 5.97842 22.2282C5.12968 21.4487 4.39727 20.5817 4.06122 19.4387C3.97936 19.1673 3.91473 18.8914 3.88027 18.6111C3.86734 18.506 3.82857 18.4622 3.72517 18.4491C2.25172 18.2477 1.13587 17.4244 0.175113 16.334C-0.079078 16.045 -0.0532259 15.6552 0.231123 15.375C0.980773 14.6393 1.86828 14.1927 2.90228 14.0438C3.66054 13.9343 4.39727 14.035 5.12537 14.2671C5.23738 14.6437 5.30201 15.0378 5.42695 15.41C5.52174 15.6859 5.70268 15.918 5.763 16.2026C4.99612 15.5808 4.13445 15.2787 3.14785 15.3969C2.62224 15.4582 2.13971 15.6377 1.69164 15.9399C2.45853 16.715 3.37188 17.1003 4.43604 17.1398C4.91426 17.1573 5.15122 17.4025 5.17276 17.8886C5.19 18.379 5.27616 18.8563 5.45711 19.3117C5.6596 19.8285 5.95687 20.2795 6.35756 20.6736C6.83578 19.9029 6.99946 19.0884 6.86595 18.2126C6.76682 17.5777 6.48246 17.0303 6.09474 16.5311C6.31017 16.5661 6.48246 16.7062 6.67637 16.7895C7.09858 16.9733 7.54663 17.0741 7.99474 17.1792Z" fill="#F0D500" />
    <path d="M7.99451 17.1787C7.54646 17.0736 7.09842 16.9729 6.67187 16.789C6.47368 16.7058 6.30566 16.5657 6.09026 16.5306C5.97825 16.4168 5.87053 16.3073 5.75852 16.1934C5.6982 15.9044 5.51725 15.6724 5.42247 15.4008C5.29322 15.0242 5.23291 14.6345 5.12089 14.2579C5.04765 13.693 5.01318 13.1281 5.0261 12.5589C5.03903 12.1647 5.08211 11.775 5.13381 11.3853C5.17259 11.0919 5.31045 10.8598 5.59911 10.7591C5.90069 10.654 6.14196 10.7635 6.35739 10.9824C7.96867 12.6201 9.57568 14.2579 11.1913 15.8913C11.4197 16.1234 11.5575 16.3817 11.4325 16.7145C11.3119 17.0342 11.0491 17.1349 10.7389 17.1787C9.82126 17.3101 8.90789 17.3145 7.99451 17.1787ZM9.2267 15.9176C8.27026 14.9454 7.3181 13.9776 6.36601 13.0099C6.38323 13.7894 6.50385 14.5601 6.84422 15.2914C6.88301 15.3789 6.9519 15.4183 7.0338 15.4534C7.7317 15.7862 8.47273 15.9044 9.2267 15.9176Z" fill="#F17E00" />
  </g>
  <defs>
    <clipPath id="clip0_1599_906">
      <rect width="22" height="22" fill="white" />
    </clipPath>
  </defs>
</svg>