<svg width="22" height="22" viewBox="0 0 22 22" fill="none" xmlns="http://www.w3.org/2000/svg">
  <g clip-path="url(#clip0_1599_915)">
    <path d="M6.79391 0.00537109C6.99801 0.102044 7.22354 0.0483378 7.43839 0.0805621C8.00228 0.166493 8.53939 0.3115 9.04961 0.569292C9.592 0.843197 9.65649 1.35878 9.18387 1.75084C8.21712 2.55644 7.24504 3.35667 6.27295 4.1569C6.09035 4.30728 5.94534 4.47914 5.93997 4.73156C5.9346 5.08066 6.20851 5.36531 6.57373 5.38142C7.5619 5.42976 8.54474 5.46735 9.53298 5.51568C9.60275 5.52106 9.67799 5.52106 9.74776 5.5318C10.2849 5.6231 10.4997 6.12794 10.1882 6.57907C9.84984 7.06244 9.45239 7.49207 8.99052 7.86267C7.81968 8.80792 6.4878 9.36106 4.98937 9.51148C4.53823 9.50607 4.08709 9.53298 3.63595 9.46849C2.77127 9.33963 1.98179 9.02811 1.29434 8.48031C1.0634 8.23322 0.810977 8.00769 0.628373 7.71766C0.499477 7.50822 0.375952 7.29872 0.247056 7.08394C0.166496 6.76167 0.0805602 6.43406 0 6.11183C0 5.81107 0 5.51031 0 5.20956C0.032224 5.19881 0.0375974 5.17196 0.042968 5.14511C0.177235 4.22672 0.558554 3.42112 1.13859 2.71219C2.28791 1.2997 3.78633 0.477991 5.56403 0.139638C5.8433 0.0859314 6.12795 0.118156 6.39647 0.0161131C6.53614 0.00537175 6.66499 0.00537109 6.79391 0.00537109ZM7.57265 1.41249C7.22895 1.32656 6.92818 1.31045 6.62741 1.31582C5.79496 1.32656 5.0001 1.52527 4.24821 1.8851C3.07203 2.44366 2.12142 3.24926 1.56824 4.45766C1.07414 5.5318 1.25674 6.6704 2.06234 7.41689C2.62626 7.93785 3.32446 8.15804 4.07635 8.21712C5.08603 8.29771 6.03664 8.08827 6.94427 7.65323C7.42764 7.4223 7.87877 7.14302 8.27087 6.74558C7.98085 6.71333 7.69617 6.72408 7.41155 6.70799C6.98186 6.68115 6.54689 6.71333 6.12795 6.60591C5.35994 6.40722 4.87121 5.90774 4.70472 5.13437C4.5436 4.3771 4.79065 3.73799 5.37605 3.23852C5.95071 2.75516 6.53073 2.27717 7.11078 1.79918C7.25579 1.67565 7.39539 1.5575 7.57265 1.41249Z" fill="#F17E00" />
    <path d="M16.9765 9.50073C15.3385 9.31813 13.9098 8.68441 12.6907 7.57265C12.3631 7.27188 12.0677 6.93893 11.8153 6.57373C11.493 6.11183 11.7294 5.58013 12.2986 5.52105C12.6101 5.48883 12.927 5.48883 13.2439 5.47271C13.9582 5.44049 14.6725 5.40827 15.3868 5.37605C15.6983 5.3653 15.9346 5.20956 16.0259 4.95713C16.1226 4.6886 16.0528 4.42006 15.8003 4.21061C14.8228 3.39427 13.8401 2.5833 12.8572 1.77232C12.7068 1.6488 12.5726 1.51453 12.5296 1.31045C12.4651 1.0258 12.6048 0.746523 12.9055 0.590774C13.55 0.252422 14.2375 0.0805596 14.9572 0.0429647C15.0162 0.037594 15.086 0.0751897 15.129 0C15.2847 0 15.4459 0 15.6016 0C15.8755 0.107413 16.1709 0.0698167 16.4556 0.128894C18.2333 0.472617 19.7317 1.2997 20.8756 2.71756C21.606 3.6252 22.0303 4.65101 21.9981 5.83793C21.9874 6.27295 21.8584 6.68115 21.7349 7.08928C21.4772 7.63174 21.1012 8.09361 20.6662 8.50715C20.6339 8.52324 20.6017 8.53939 20.5749 8.56083C19.9143 9.07104 19.157 9.34497 18.3353 9.45239C17.8842 9.53832 17.4276 9.49533 16.9765 9.50073ZM14.4362 1.40712C14.5329 1.48768 14.5866 1.54138 14.651 1.58972C15.3062 2.13216 15.9668 2.6746 16.6167 3.21704C17.1323 3.64669 17.4116 4.20524 17.3364 4.87657C17.2182 5.96682 16.4609 6.62741 15.36 6.65965C14.8175 6.67574 14.2804 6.70799 13.6951 6.74017C14.2106 7.1967 14.7531 7.52431 15.3438 7.766C16.5307 8.25471 17.7445 8.40513 18.9851 7.98085C20.0754 7.6049 20.7521 6.65965 20.7145 5.56402C20.6877 4.9088 20.4513 4.32339 20.0808 3.79169C19.1892 2.51884 17.9379 1.77769 16.4448 1.4286C15.795 1.28359 15.1398 1.26748 14.4362 1.40712Z" fill="#F17E00" />
    <path d="M4.38686 15.0756C3.66719 15.0648 3.07642 14.7372 2.54472 14.3022C1.7069 13.6201 1.07316 12.7876 0.772399 11.7296C0.686467 11.4181 0.638136 11.1012 0.686467 10.7736C0.697209 10.693 0.697215 10.6233 0.648878 10.548C0.321266 10.0861 0.138658 9.56518 0.0527271 9.00663C0.0473565 8.97445 0.0419897 8.95295 0.00976562 8.9422C0.00976562 8.61459 0.00976562 8.28164 0.00976562 7.95402C0.0634721 7.93253 0.0473617 7.88419 0.058103 7.8466C0.106439 7.58342 0.1494 7.32564 0.262185 7.07861C0.391081 7.28805 0.509234 7.50284 0.643504 7.71234C0.826104 8.00236 1.07853 8.2333 1.30947 8.47498C1.33095 9.05497 1.48133 9.58668 1.87875 10.0271C2.07747 10.2473 2.13118 10.4943 2.00229 10.779C1.94321 10.9025 1.94321 11.0368 1.97006 11.1764C2.08284 11.7887 2.39434 12.2935 2.79177 12.75C3.16235 13.1797 3.5759 13.561 4.13982 13.7329C4.22574 14.1786 4.33852 14.619 4.38686 15.0756Z" fill="#F17E00" />
    <path d="M0.00537592 17.2776C0.150384 17.0037 0.402802 16.8749 0.665965 16.7459C1.38027 16.3968 2.09457 16.037 2.8035 15.6772C2.97536 15.5912 3.14185 15.5429 3.33519 15.5483C3.71114 15.5537 4.09245 15.5537 4.4684 15.5537C4.60804 15.9672 4.68323 16.3968 4.7262 16.8319C4.67786 16.8319 4.62415 16.8373 4.57581 16.8319C3.73799 16.7298 2.97536 16.9339 2.25569 17.3797C1.91196 17.5945 1.53065 17.7503 1.16544 17.9275C0.569295 18.2229 0.381318 18.1799 0 17.6643C0.00537068 17.5354 0.00537592 17.4065 0.00537592 17.2776Z" fill="#F17E00" />
    <path d="M4.7322 16.8316C4.68386 16.3965 4.61404 15.9669 4.4744 15.5534C4.49589 15.3869 4.44755 15.2311 4.39385 15.0754C4.34551 14.6242 4.23272 14.1784 4.13605 13.7381C4.11457 13.4695 4.08235 13.201 4.13069 12.9271C4.15217 12.8036 4.24884 12.6961 4.18439 12.5619C4.35625 12.4652 4.3831 12.2611 4.50126 12.1215C4.67312 11.9121 4.89869 11.7671 5.0813 11.5737C5.46261 11.4609 5.84929 11.3481 6.24135 11.2837C6.31117 11.2729 6.38101 11.2568 6.45084 11.2461C6.53136 11.7026 6.73546 12.0893 7.05772 12.4169C6.68712 12.492 6.31651 12.5673 5.94597 12.6532C5.52168 12.7499 5.32834 13.0506 5.40889 13.4803C5.5915 14.404 5.77948 15.3278 5.95134 16.2569C6.09635 17.0518 6.33801 17.8037 6.83213 18.4642C7.27251 19.055 7.84721 19.4901 8.44335 19.8983C9.56044 20.6608 10.785 20.8381 12.09 20.5481C12.9654 20.3547 13.6583 19.8445 14.3349 19.2967C15.1567 18.6361 15.6884 17.7876 15.9032 16.7564C16.1288 15.6822 16.3382 14.6027 16.5477 13.5232C16.6444 13.013 16.4456 12.7337 15.9354 12.6371C15.5917 12.5673 15.2534 12.492 14.9097 12.4223C15.2265 12.0893 15.4306 11.7026 15.5165 11.2514C15.9784 11.332 16.4456 11.4072 16.8861 11.6005C17.1438 11.7885 17.3909 11.9926 17.5681 12.2665C17.6326 12.3685 17.6487 12.4975 17.7615 12.5673C17.8527 12.9593 17.885 13.3514 17.842 13.7542C17.7131 14.1892 17.6272 14.6296 17.5789 15.0808C17.509 15.2311 17.4715 15.3922 17.4929 15.5587C17.3372 15.9723 17.2835 16.4019 17.2351 16.8369C17.1384 17.0625 17.0901 17.2988 17.0633 17.5351C16.8914 17.9218 16.7142 18.3139 16.5423 18.7006C16.4134 18.91 16.2147 19.0819 16.161 19.3343C15.9999 19.3665 15.9569 19.5223 15.8602 19.619C15.64 19.8392 15.4252 20.0594 15.2104 20.285C14.9633 20.4031 14.77 20.5964 14.5551 20.7575C13.8086 21.3215 12.9816 21.7135 12.0578 21.8746C10.366 22.17 8.82464 21.8102 7.44436 20.7844C7.21883 20.6125 7.00398 20.4246 6.75155 20.285C6.53677 20.0647 6.31658 19.8392 6.10172 19.619C6.00505 19.5223 5.95671 19.3719 5.80096 19.3343C5.73651 19.0873 5.54318 18.9154 5.41965 18.7006C5.24779 18.3139 5.07054 17.9218 4.89868 17.5351C4.87183 17.288 4.81276 17.0571 4.7322 16.8316Z" fill="#F17E00" />
    <path d="M17.5781 15.0702C17.6211 14.6191 17.7124 14.1787 17.8412 13.7437C17.9379 13.7007 18.04 13.6685 18.1313 13.6202C18.9852 13.1421 19.576 12.4332 19.9251 11.5202C20.0164 11.2839 20.0916 11.0261 19.9734 10.7683C19.8445 10.4836 19.909 10.242 20.1023 10.0164C20.4836 9.58673 20.6501 9.07652 20.6662 8.50722C21.1013 8.09369 21.4718 7.63181 21.735 7.08936C22.127 8.29778 22.0411 9.45247 21.3322 10.5374C21.2946 10.5911 21.2678 10.6447 21.2785 10.7146C21.3805 11.4557 21.1335 12.1109 20.7737 12.734C20.2527 13.6201 19.5599 14.3398 18.6307 14.807C18.2978 14.9789 17.9487 15.0755 17.5781 15.0702Z" fill="#F17E00" />
    <path d="M17.2344 16.8316C17.2827 16.3966 17.3364 15.9669 17.4922 15.5534C17.5083 15.5534 17.5191 15.5534 17.5351 15.5534C18.4481 15.4459 19.2806 15.65 20.0647 16.128C20.5427 16.418 21.069 16.6329 21.5685 16.8961C21.9713 17.1055 22.068 17.5566 21.7941 17.8896C21.6007 18.1259 21.2892 18.185 20.9778 18.0347C20.4622 17.7822 19.9412 17.5566 19.4471 17.2666C18.8724 16.9282 18.2763 16.7671 17.6157 16.8423C17.4922 16.8477 17.3633 16.8316 17.2344 16.8316Z" fill="#F17E00" />
    <path d="M4.89778 17.5298C5.06965 17.9165 5.24689 18.3085 5.41875 18.6952C4.87094 18.8832 4.32313 19.0712 3.77532 19.2484C3.62494 19.2967 3.50679 19.3719 3.39937 19.4794C3.06639 19.8231 2.72804 20.1614 2.37895 20.4944C2.13189 20.7307 1.77206 20.7415 1.51963 20.532C1.27259 20.3279 1.21351 19.9734 1.38537 19.6996C1.42833 19.6351 1.48204 19.576 1.53575 19.5223C1.91707 19.1356 2.30376 18.7543 2.69045 18.3676C2.8086 18.2494 2.94286 18.1635 3.10399 18.1098C3.71087 17.9218 4.30164 17.7231 4.89778 17.5298Z" fill="#F17E00" />
    <path d="M16.541 18.6952C16.7129 18.3085 16.8901 17.9165 17.062 17.5298C17.685 17.7339 18.308 17.938 18.931 18.1474C19.033 18.1796 19.1243 18.2387 19.1995 18.3193C19.6238 18.7436 20.0535 19.1624 20.4724 19.5921C20.6925 19.8177 20.7248 20.1023 20.5798 20.3601C20.4455 20.5965 20.1877 20.72 19.9085 20.677C19.7527 20.6555 19.6345 20.5696 19.5271 20.4568C19.2264 20.1507 18.9149 19.8553 18.6195 19.5438C18.4691 19.3827 18.2918 19.2806 18.0824 19.2162C17.5668 19.0497 17.0566 18.8671 16.541 18.6952Z" fill="#F17E00" />
    <path d="M5.8048 19.3291C5.96055 19.3667 6.00351 19.517 6.10555 19.6137C6.32572 19.834 6.54057 20.0542 6.75542 20.2797C6.29888 20.4569 5.94443 20.7738 5.61682 21.1283C5.39125 21.3699 5.16031 21.6009 4.91326 21.8211C4.66084 22.0467 4.29026 22.0198 4.05933 21.7835C3.82302 21.5525 3.78542 21.1713 4.01636 20.9296C4.45675 20.4623 4.91863 20.0112 5.3805 19.5654C5.49329 19.4526 5.64905 19.3882 5.8048 19.3291Z" fill="#F17E00" />
    <path d="M15.209 20.2797C15.4238 20.0595 15.6387 19.834 15.8589 19.6137C15.9555 19.517 15.9985 19.3613 16.1596 19.3291C16.3959 19.4204 16.6 19.56 16.7773 19.7426C17.1317 20.1078 17.4916 20.4623 17.8514 20.8221C18.1575 21.1337 18.179 21.515 17.9051 21.7889C17.6365 22.0574 17.2445 22.0306 16.9384 21.7244C16.7504 21.5365 16.557 21.3539 16.3798 21.1659C16.0361 20.8007 15.6816 20.4623 15.209 20.2797Z" fill="#F17E00" />
    <path d="M15.5168 11.2517C15.4308 11.7028 15.2321 12.0949 14.9099 12.4225C14.8669 12.4494 14.824 12.4762 14.7863 12.5085C14.2493 12.9166 13.6585 13.0294 13.014 12.8307C12.493 12.6749 12.1332 12.3259 11.8647 11.8639C11.6714 11.4504 11.6445 11.0154 11.7035 10.5696C11.8379 10.1668 12.0258 9.79624 12.3695 9.52237C12.9871 9.039 13.6692 8.93158 14.3782 9.24844C15.1354 9.59214 15.5114 10.2152 15.5168 11.053C15.5168 11.1228 15.5168 11.1873 15.5168 11.2517ZM14.2332 10.9993C14.2332 10.6448 13.9485 10.3602 13.594 10.3602C13.2449 10.3602 12.9442 10.6609 12.9496 10.9993C12.9603 11.3537 13.2449 11.6437 13.594 11.6437C13.9431 11.6437 14.2332 11.3537 14.2332 10.9993Z" fill="#8DBF33" />
    <path d="M7.05255 12.4226C6.73034 12.095 6.52625 11.703 6.44566 11.2518C6.40808 10.6718 6.53699 10.1454 6.94513 9.7104C7.43925 9.1841 8.05154 8.98 8.74969 9.12501C9.4425 9.27002 9.91513 9.69431 10.1729 10.3549C10.1998 10.4301 10.2266 10.5053 10.2481 10.5751C10.3126 11.0208 10.275 11.4505 10.0924 11.8641C10.0655 11.8963 10.044 11.9339 10.0171 11.9661C9.58217 12.6589 8.95913 12.9758 8.14281 12.906C7.72393 12.8737 7.38016 12.6751 7.05255 12.4226ZM7.72927 10.9994C7.72927 11.3539 8.01389 11.6439 8.363 11.6439C8.7121 11.6439 8.99672 11.3592 9.00747 11.0048C9.01288 10.6556 8.72285 10.3603 8.37374 10.3603C8.01389 10.3603 7.72927 10.6396 7.72927 10.9994Z" fill="#8DBF33" />
    <path d="M17.7563 12.5622C17.6435 12.4924 17.6274 12.3636 17.5629 12.2615C17.3857 11.9876 17.144 11.7835 16.8809 11.5956C17.042 11.3055 17.2515 11.0584 17.477 10.8222C17.5576 10.7416 17.5629 10.6825 17.4931 10.5858C17.2461 10.2582 17.0796 9.89301 16.9722 9.49563C17.4287 9.48488 17.8852 9.52781 18.3363 9.45264C18.4222 9.76416 18.6263 9.98435 18.8734 10.1777C19.2547 10.4892 19.2655 10.9081 18.9003 11.2357C18.7338 11.3915 18.5619 11.5365 18.4007 11.7029C18.1537 11.9715 17.9819 12.2884 17.7563 12.5622Z" fill="#F17E00" />
    <path d="M5.07558 11.5741C4.89298 11.7674 4.66741 11.9124 4.49554 12.1219C4.38276 12.2615 4.35591 12.4656 4.17868 12.5622C3.88866 12.0735 3.5342 11.6439 3.09917 11.2733C2.68563 10.9242 2.70174 10.4999 3.1314 10.1615C3.3677 9.97359 3.53957 9.748 3.64161 9.46338C4.09275 9.52781 4.54388 9.50097 4.99502 9.50631C4.89298 9.89841 4.73185 10.2582 4.48481 10.5805C4.40962 10.6771 4.40962 10.747 4.50092 10.8329C4.72112 11.0584 4.91446 11.3001 5.07558 11.5741Z" fill="#F17E00" />
    <path d="M10.0977 11.864C10.2803 11.4505 10.3178 11.0208 10.2534 10.5751C10.7368 10.5213 11.2202 10.5268 11.7035 10.5697C11.6444 11.0155 11.6713 11.4505 11.8646 11.864C11.2738 11.8103 10.6885 11.8157 10.0977 11.864Z" fill="#F17E00" />
  </g>
  <defs>
    <clipPath id="clip0_1599_915">
      <rect width="22" height="22" fill="white" />
    </clipPath>
  </defs>
</svg>