<svg width="45" height="59" viewBox="0 0 45 59" fill="none" xmlns="http://www.w3.org/2000/svg">
  <path fill-rule="evenodd" clip-rule="evenodd" d="M21.4307 6.31936V12.6387H22.6664H23.9021V6.31936V0H22.6664H21.4307V6.31936Z" fill="#FAE013" />
  <path fill-rule="evenodd" clip-rule="evenodd" d="M0.434814 56.7034V58.0239H22.2237H45V56.7034V55.3829H22.2237H0.434814V56.7034Z" fill="#F17E00" />
  <path fill-rule="evenodd" clip-rule="evenodd" d="M5.00331 38.5644C2.68235 38.7334 1.01859 40.3139 0.530331 42.8138C0.454334 43.2028 0.450167 43.3166 0.437913 45.3339C0.429438 46.7234 0.438408 47.5688 0.464081 47.8033C0.613461 49.1687 1.07495 50.21 1.92782 51.1062C2.32483 51.5234 2.67462 51.7842 3.19335 52.0497C3.90334 52.4131 4.50499 52.5549 5.46773 52.5858C6.88479 52.6312 7.98641 52.3552 8.87023 51.7335C9.13551 51.5469 9.58788 51.0799 9.77572 50.7988C10.2227 50.1299 10.4947 49.1392 10.4947 48.1796V47.8051H9.05185H7.60901L7.58461 48.1833C7.53898 48.891 7.34094 49.459 7.0514 49.7125C6.73466 49.9897 6.25725 50.1429 5.7096 50.1429C4.5277 50.1429 3.79616 49.4363 3.48257 47.9917C3.43052 47.7518 3.41932 47.4376 3.40594 45.8432C3.38521 43.37 3.4273 42.9517 3.77427 42.1837C3.90334 41.898 3.98718 41.7711 4.18723 41.5586C4.58572 41.1354 4.89193 41.0149 5.56834 41.0152C6.25983 41.0156 6.74625 41.1732 7.08491 41.5067C7.3807 41.798 7.59813 42.4381 7.59944 43.0215C7.59976 43.1521 7.61272 43.2803 7.62826 43.3065C7.65043 43.3438 7.96558 43.3519 9.08444 43.3442L10.5123 43.3344L10.5094 42.825C10.497 40.7085 9.26776 39.2013 7.15748 38.7155C6.55785 38.5774 5.67513 38.5155 5.00331 38.5644ZM12.2642 45.5792V52.4078H16.5019H20.7396V51.1817V49.9555H17.9851H15.2306V44.353V38.7505H13.7474H12.2642V45.5792ZM22.2229 43.2495C22.223 46.1546 22.2364 47.9014 22.2609 48.1801C22.3937 49.6948 23.0253 50.8314 24.1914 51.6542C25.0843 52.2842 26.201 52.5974 27.5482 52.5957C28.9129 52.594 30.0218 52.272 30.9278 51.6143C31.9146 50.8978 32.5037 49.926 32.7336 48.6351C32.7927 48.3035 32.7983 47.9204 32.8085 43.5136L32.8197 38.7505H31.3184H29.8172L29.8064 43.5324C29.7944 48.8048 29.8113 48.4124 29.5724 48.9579C29.4482 49.2414 29.1435 49.6044 28.8735 49.7905C28.773 49.8597 28.5664 49.9628 28.4144 50.0196C28.1545 50.1167 28.102 50.1228 27.5376 50.122C26.9818 50.1212 26.9161 50.1137 26.652 50.0199C25.9693 49.7776 25.5252 49.2763 25.3081 48.503C25.2486 48.2912 25.2438 47.9714 25.2336 43.5136L25.2227 38.7505H23.7227H22.2228L22.2229 43.2495ZM34.9044 45.5792V52.4078H37.6174C40.4058 52.4078 40.8008 52.3918 41.451 52.2527C43.1217 51.8952 44.137 51.0066 44.5077 49.5777C44.6636 48.9766 44.6862 48.0984 44.5599 47.5464C44.428 46.97 44.054 46.3193 43.6512 45.9654C43.4257 45.7673 42.9818 45.5297 42.6669 45.4387L42.4306 45.3703L42.7375 45.2028C42.9736 45.0739 43.1153 44.9605 43.3524 44.7107C43.6177 44.4312 43.6824 44.3365 43.8177 44.03C43.9042 43.8341 43.9993 43.572 44.0291 43.4475C44.223 42.6391 44.1551 41.6882 43.8531 40.9824C43.3324 39.7655 42.1454 39.0353 40.3163 38.8067C39.9586 38.762 39.3586 38.7505 37.3854 38.7505H34.9044V45.5792ZM39.7601 41.2397C40.3383 41.3391 40.7394 41.5716 40.9353 41.9208C41.103 42.2196 41.1367 42.377 41.137 42.8628C41.1373 43.2545 41.1281 43.3175 41.043 43.5115C40.8585 43.9323 40.4831 44.2138 39.919 44.3546C39.7177 44.4048 39.4401 44.4249 38.7625 44.4385L37.8708 44.4564V42.8296V41.2028L38.7095 41.203C39.1708 41.2031 39.6436 41.2196 39.7601 41.2397ZM40.4313 46.6155C41.2998 46.793 41.6768 47.3571 41.6425 48.4276C41.631 48.7852 41.6153 48.8751 41.5288 49.0778C41.4113 49.3531 41.1622 49.6212 40.9157 49.7377C40.5271 49.9213 40.4607 49.9291 39.1333 49.9456L37.8708 49.9614V48.2607V46.5601H39.0154C39.8758 46.5601 40.2274 46.5738 40.4313 46.6155Z" fill="#141515" />
  <path fill-rule="evenodd" clip-rule="evenodd" d="M0.434814 34.4077V35.7282H22.2237H45V34.4077V33.0873H22.2237H0.434814V34.4077Z" fill="#8EBD3F" />
  <path fill-rule="evenodd" clip-rule="evenodd" d="M2.55619 21.1829C1.32089 21.4386 0.452727 22.3286 0.110072 23.6907C0.0214332 24.0431 0.0183609 24.0935 0.00416455 25.4307C-0.0112325 26.8826 0.0120396 27.2783 0.142455 27.7811C0.373446 28.6715 0.979757 29.4466 1.77094 29.8626C2.32933 30.1563 2.53984 30.1995 3.42139 30.201C4.09112 30.2022 4.21695 30.1925 4.48848 30.1189C5.25293 29.9116 5.7564 29.5596 6.10821 28.9863C6.37034 28.5591 6.52905 27.9626 6.52905 27.4044V27.1284H5.59678H4.66456L4.63913 27.4019C4.57486 28.0935 4.37399 28.4159 3.91473 28.565C3.56766 28.6776 3.10144 28.6561 2.81102 28.5141C2.40194 28.314 2.09795 27.8324 1.98819 27.2108C1.90757 26.7541 1.93187 24.2324 2.02001 23.9092C2.16649 23.372 2.4078 23.0148 2.74286 22.839C2.92699 22.7424 2.97865 22.7332 3.3331 22.7334C3.79565 22.7338 4.05334 22.8088 4.26921 23.0063C4.50455 23.2215 4.65739 23.644 4.65739 24.0794V24.2234H5.61621H6.57503L6.55253 23.8555C6.52308 23.3734 6.45132 23.0661 6.27959 22.6865C5.95148 21.9611 5.27313 21.448 4.34044 21.2195C4.01304 21.1393 2.87931 21.116 2.55619 21.1829ZM9.55287 21.6479C9.42687 22.0562 7.05452 29.8648 7.00794 30.0246L6.98301 30.1101L8.00035 30.1L9.01764 30.09L9.24902 29.26L9.48044 28.43L10.7182 28.4201L11.956 28.4102L12.1797 29.2207C12.3028 29.6665 12.4137 30.049 12.4263 30.0707C12.4414 30.097 12.7846 30.1067 13.4574 30.1001L14.4657 30.09L13.1177 25.6759L11.7697 21.2618L10.724 21.2518L9.6782 21.2418L9.55287 21.6479ZM15.5883 25.6759V30.1089H16.5592H17.5301L17.5392 27.3377L17.5483 24.5664L19.0524 27.3283L20.5565 30.09L21.5332 30.1001L22.5099 30.1101V25.6765V21.2429H21.5388H20.5676V24.0181C20.5676 25.5445 20.5553 26.7852 20.5403 26.7753C20.5253 26.7654 19.838 25.5167 19.013 24.0004L17.5129 21.2436L16.5506 21.2433L15.5883 21.2429V25.6759ZM26.1101 21.6479C25.9841 22.0562 23.6117 29.8648 23.5651 30.0246L23.5402 30.1101L24.5575 30.1L25.5748 30.09L25.8062 29.26L26.0376 28.43L27.2754 28.4201L28.5132 28.4102L28.7369 29.2207C28.86 29.6665 28.9709 30.049 28.9834 30.0707C28.9986 30.097 29.3418 30.1067 30.0146 30.1001L31.0228 30.09L29.6749 25.6759L28.3269 21.2618L27.2812 21.2518L26.2354 21.2418L26.1101 21.6479ZM32.0358 25.6759V30.1089H33.007H33.9781V28.6053V27.1018L34.8874 27.0792C35.6195 27.061 35.8655 27.041 36.1493 26.9767C37.2919 26.718 38.085 25.9531 38.3253 24.8785C38.4336 24.3943 38.4096 23.6565 38.2715 23.224C37.9825 22.3186 37.2839 21.6515 36.3561 21.395C35.8749 21.2619 35.5917 21.2453 33.7927 21.2441L32.0358 21.2429V25.6759ZM39.4871 25.6759V30.1089H42.2063H44.8158V29.3166V28.5243H43.1775H41.4294V27.4302V26.3361H42.8773H44.3252V25.525V24.7138H42.8773H41.4294V23.7707V22.8275H43.1775H44.8158V22.0352V21.2429H42.2063H39.4871V25.6759ZM35.5377 22.8821C35.8244 22.947 35.952 23.0147 36.114 23.1878C36.3419 23.4313 36.4266 23.6642 36.4426 24.0913C36.4546 24.4132 36.4451 24.5014 36.378 24.6919C36.2789 24.9731 36.0759 25.2105 35.8195 25.345C35.6217 25.4487 35.6139 25.4496 34.7992 25.462L33.9781 25.4745V24.151V22.8275L34.6402 22.8281C35.0737 22.8286 35.3837 22.8472 35.5377 22.8821ZM11.1175 25.438L11.4958 26.77L10.7377 26.7802C10.3207 26.7858 9.97268 26.7831 9.96439 26.7742C9.95203 26.761 10.1508 26.028 10.6497 24.248C10.6779 24.1474 10.7096 24.0743 10.7201 24.0855C10.7306 24.0968 10.9095 24.7054 11.1175 25.438ZM27.6747 25.438L28.053 26.77L27.2949 26.7802C26.8779 26.7858 26.5299 26.7831 26.5216 26.7742C26.5092 26.761 26.708 26.028 27.2069 24.248C27.2351 24.1474 27.2667 24.0743 27.2773 24.0855C27.2878 24.0968 27.4667 24.7054 27.6747 25.438Z" fill="#141515" />
  <path fill-rule="evenodd" clip-rule="evenodd" d="M0.434814 16.939V18.2595H22.2237H45V16.939V15.6185H22.2237H0.434814V16.939Z" fill="#F17E00" />
</svg>