<svg width="20" height="18" viewBox="0 0 20 18" fill="none" xmlns="http://www.w3.org/2000/svg">
  <path d="M18.457 3.92624C15.7963 -0.0001297 10.3639 -1.16743 6.15102 1.27329C2.04902 3.714 0.718637 9.01991 3.3794 12.9463L3.60113 13.2646L2.71421 16.4482L6.04016 15.5992L6.37275 15.8115C7.814 16.5543 9.36611 16.9788 10.9182 16.9788C12.5812 16.9788 14.2442 16.5543 15.6854 15.7053C19.7874 13.1585 21.0069 7.95873 18.457 3.92624ZM16.1289 12.0973C15.6854 12.734 15.1311 13.1585 14.355 13.2646C13.9116 13.2646 13.3572 13.4769 11.1399 12.6279C9.25524 11.779 7.70313 10.3994 6.59448 8.80767C5.92929 8.06485 5.5967 7.10978 5.48583 6.15472C5.48583 5.30578 5.81843 4.56295 6.37275 4.03236C6.59448 3.82012 6.81621 3.714 7.03794 3.714H7.59227C7.814 3.714 8.03573 3.714 8.14659 4.13848C8.36832 4.66907 8.92265 5.94248 8.92265 6.0486C9.03351 6.15472 9.03351 6.36696 8.92265 6.47308C9.03351 6.68531 8.92265 6.89755 8.81178 7.00367C8.70092 7.10978 8.59005 7.32202 8.47919 7.42814C8.25746 7.53426 8.14659 7.74649 8.25746 7.95873C8.70092 8.59544 9.25524 9.23215 9.80957 9.76274C10.4748 10.2933 11.1399 10.7178 11.916 11.0362C12.1377 11.1423 12.3595 11.1423 12.4703 10.93C12.5812 10.7178 13.1355 10.1872 13.3572 9.97497C13.579 9.76274 13.6898 9.76274 13.9116 9.86885L15.6854 10.7178C15.9071 10.8239 16.1289 10.93 16.2397 11.0362C16.3506 11.3545 16.3506 11.779 16.1289 12.0973Z" fill="#F17E00" />
</svg>