<svg width="20" height="18" viewBox="0 0 20 18" fill="none" xmlns="http://www.w3.org/2000/svg">
  <path d="M19.345 1.35725C19.3305 1.28253 19.2982 1.213 19.251 1.15544C19.2038 1.09788 19.1434 1.05423 19.0756 1.02872C18.8202 0.97622 18.5564 0.995947 18.3105 1.08587C18.3105 1.08587 1.31789 7.56509 0.345416 8.28214C0.137992 8.43641 0.0760327 8.52782 0.0329315 8.63066C-0.134086 9.14203 0.388518 9.36774 0.388518 9.36774L4.76867 10.8818C4.84124 10.9006 4.917 10.9006 4.98956 10.8818C5.98628 10.2133 15.0133 4.16835 15.5359 3.96552C15.6167 3.93981 15.6787 3.96551 15.6625 4.02836C15.4524 4.80541 7.61066 12.196 7.61066 12.196C7.59155 12.2226 7.57529 12.2513 7.56217 12.2817L7.1554 16.8897C7.1554 16.8897 6.98299 18.301 8.31374 16.8897C9.25389 15.8927 10.1617 15.0585 10.617 14.6557C12.1228 15.7584 13.7445 16.9783 14.4422 17.6153C14.5601 17.7355 14.6995 17.8295 14.8522 17.8918C15.0048 17.9541 15.1677 17.9835 15.3312 17.9782C15.9938 17.9524 16.1797 17.1782 16.1797 17.1782C16.1797 17.1782 19.2776 3.95981 19.38 2.18859C19.38 2.01719 19.4042 1.9029 19.4042 1.78577C19.4058 1.64052 19.3858 1.49591 19.345 1.35725Z" fill="#F17E00" />
</svg>