<svg width="20" height="18" viewBox="0 0 20 18" fill="none" xmlns="http://www.w3.org/2000/svg">
  <path fill-rule="evenodd" clip-rule="evenodd" d="M3.00325 1.54208C3.18915 1.35644 3.41239 1.21243 3.65815 1.1196C3.90392 1.02677 4.1666 0.987229 4.4288 1.00361C4.691 1.01998 4.94673 1.0919 5.17904 1.21459C5.41134 1.33728 5.61492 1.50795 5.77629 1.71528L7.68342 4.16551C8.03297 4.61497 8.15621 5.20044 8.01809 5.75296L7.43692 8.07994C7.40688 8.20047 7.4085 8.32671 7.44164 8.44643C7.47477 8.56614 7.5383 8.67525 7.62604 8.76316L10.2365 11.3738C10.3245 11.4618 10.4338 11.5254 10.5537 11.5586C10.6736 11.5917 10.8001 11.5932 10.9208 11.563L13.2465 10.9818C13.5191 10.9136 13.8037 10.9083 14.0787 10.9663C14.3537 11.0243 14.6119 11.144 14.8338 11.3165L17.2839 13.2227C18.1647 13.908 18.2454 15.2096 17.457 15.997L16.3585 17.0957C15.5722 17.882 14.3971 18.2273 13.3017 17.8416C10.4981 16.855 7.95251 15.2498 5.85385 13.1451C3.74941 11.0466 2.14436 8.5012 1.15775 5.69771C0.773132 4.60328 1.11843 3.42704 1.90466 2.64076L3.00325 1.54208Z" fill="#F17E00" />
</svg>