<svg width="21" height="20" viewBox="0 0 21 20" fill="none" xmlns="http://www.w3.org/2000/svg">
  <path fill-rule="evenodd" clip-rule="evenodd" d="M10.7322 1.88639L10.8936 2.04429L11.055 1.88641C12.1447 0.820397 13.5681 0.231062 15.0427 0.230774C15.8227 0.231425 16.5953 0.396105 17.3162 0.715775C18.0372 1.03548 18.6928 1.5043 19.2446 2.09565C21.6082 4.6225 21.6076 8.56698 19.2471 11.0789L11.5354 19.2849L11.5252 19.2999C11.4508 19.4092 11.3542 19.4971 11.2441 19.5575C11.1345 19.6178 11.0141 19.6494 10.8923 19.6509C10.5883 19.6504 10.3256 19.4857 10.1886 19.2293L10.1742 19.2023L2.54008 11.0788C0.179473 8.56794 0.178383 4.62206 2.5387 2.09976C3.09081 1.5073 3.7468 1.03771 4.46849 0.71726C5.1901 0.396844 5.96356 0.231657 6.74452 0.230774C8.21912 0.23086 9.64255 0.820214 10.7322 1.88639ZM18.1135 3.34274L18.1128 3.34192C16.454 1.585 13.64 1.58025 11.9787 3.34452L11.4594 3.89711C11.3838 3.97773 11.2947 4.04085 11.1978 4.08364C11.1009 4.1264 10.9976 4.1482 10.8936 4.1482C10.7896 4.1482 10.6863 4.1264 10.5894 4.08364C10.4925 4.04085 10.4033 3.97758 10.3277 3.89697L9.80849 3.34452C8.98471 2.46793 7.89705 1.97905 6.74439 1.97905C5.59182 1.97905 4.50022 2.46785 3.67033 3.34629L3.66951 3.34716C1.96796 5.16709 1.96655 8.01665 3.67199 9.83259L10.8936 17.5172L18.1152 9.83253C19.8208 8.01645 19.8191 5.16694 18.1135 3.34274Z" fill="#FF0000" />
</svg>