<svg width="47" height="47" viewBox="0 0 47 47" fill="none" xmlns="http://www.w3.org/2000/svg">
  <path d="M23.5 43.0024C34.2696 43.0024 43 34.272 43 23.5024C43 12.7329 34.2696 4.00244 23.5 4.00244C12.7304 4.00244 4 12.7329 4 23.5024C4 34.272 12.7304 43.0024 23.5 43.0024Z" fill="white" />
  <path d="M28.2813 35.0026C26.5716 35.0026 24.8997 34.6975 23.3122 34.096C22.9489 33.9583 22.7662 33.5526 22.9037 33.1893C23.0414 32.8262 23.4471 32.6435 23.8104 32.781C25.2383 33.3221 26.7425 33.5964 28.2813 33.5964C29.5112 33.5964 30.7272 33.4195 31.8956 33.0707C31.8967 33.0705 31.8978 33.0701 31.8987 33.0697C31.8987 33.0696 31.8987 33.0694 31.8987 33.0692C31.8973 33.0685 31.8953 33.0679 31.8931 33.0672C30.0091 32.4666 28.3077 31.3707 26.973 29.8974C26.7123 29.6096 26.7342 29.165 27.0221 28.9043C27.3099 28.6435 27.7545 28.6655 28.0153 28.9532C29.1835 30.2428 30.6721 31.2021 32.3201 31.7272C32.915 31.9167 33.3108 32.4618 33.305 33.0837C33.2993 33.7038 32.8945 34.2401 32.2979 34.4183C30.999 34.8059 29.6476 35.0026 28.2813 35.0026Z" fill="#F17E00" />
  <path d="M25.4625 26.828C25.1798 26.828 24.9132 26.6564 24.8059 26.3768C24.1163 24.5804 23.8975 22.5056 24.1898 20.535C24.2467 20.1511 24.6041 19.8859 24.9883 19.9427C25.3724 19.9996 25.6378 20.3572 25.5808 20.7414C25.3236 22.4763 25.5145 24.2988 26.1188 25.8727C26.2579 26.2353 26.0769 26.6421 25.7143 26.7811C25.6315 26.813 25.5462 26.828 25.4625 26.828Z" fill="#F17E00" />
  <path d="M28.3655 30.5792C28.1113 30.703 27.7965 30.6655 27.5776 30.4611C26.171 29.1481 25.0657 27.3786 24.4654 25.4791C24.3485 25.1089 24.5537 24.7141 24.9239 24.5969C25.2942 24.4798 25.6893 24.6851 25.8064 25.0554C26.3348 26.7278 27.3046 28.2826 28.5371 29.433C28.821 29.698 28.8364 30.143 28.5713 30.4268C28.5109 30.4916 28.4407 30.5425 28.3655 30.5792Z" fill="#F17E00" />
  <path d="M19.3958 31.3622C19.1462 31.495 18.8303 31.4687 18.6043 31.2723C17.1518 30.0101 15.9842 28.2812 15.3167 26.4042C15.1866 26.0385 15.3776 25.6365 15.7434 25.5062C16.1093 25.3761 16.5115 25.5672 16.6417 25.9331C17.2294 27.5856 18.2539 29.1048 19.5266 30.2106C19.8197 30.4653 19.8509 30.9096 19.5961 31.2026C19.538 31.2696 19.4697 31.3229 19.3958 31.3622Z" fill="#F17E00" />
  <path d="M23.9976 33.7962C23.8254 34.0205 23.527 34.1275 23.2399 34.0423C21.395 33.4953 19.616 32.4055 18.2309 30.9737C17.961 30.6947 17.9683 30.2497 18.2473 29.9796C18.5264 29.7095 18.9716 29.7168 19.2416 29.9959C20.4611 31.2565 22.023 32.2148 23.6395 32.694C24.0118 32.8043 24.2243 33.1957 24.1137 33.5679C24.0886 33.653 24.0485 33.7298 23.9976 33.7962Z" fill="#F17E00" />
  <path d="M15.8614 26.5652C15.5818 26.5652 15.3176 26.3973 15.2079 26.1217C14.5608 24.4946 14.2188 22.6703 14.2188 20.8463C14.2188 20.4579 14.5335 20.1431 14.9219 20.1431C15.3102 20.1431 15.625 20.4579 15.625 20.8463C15.625 22.4706 15.9409 24.1597 16.5145 25.602C16.6581 25.9629 16.4819 26.3718 16.121 26.5152C16.0359 26.5491 15.948 26.5652 15.8614 26.5652Z" fill="#F17E00" />
  <path d="M19.87 16.1588C19.8442 16.1588 19.8182 16.1574 19.792 16.1544C19.406 16.1118 19.1277 15.7642 19.1703 15.3783C19.4461 12.8836 21.5491 11.0024 24.0622 11.0024C24.4506 11.0024 24.7653 11.3172 24.7653 11.7055C24.7653 12.0939 24.4506 12.4086 24.0622 12.4086C22.267 12.4086 20.765 13.7517 20.5682 15.5328C20.5282 15.8926 20.2237 16.1588 19.87 16.1588Z" fill="#75C94D" />
  <path d="M19.8436 23.6585C19.6085 23.6585 19.3889 23.541 19.2586 23.3454L18.4368 22.1128C18.055 21.54 17.4436 21.1661 16.7597 21.0872C16.0758 21.0083 15.3954 21.233 14.893 21.7037L13.6757 22.8441C13.4909 23.0173 13.2271 23.0777 12.9852 23.0021C12.7435 22.9267 12.5609 22.7269 12.5077 22.4792C12.3799 21.8868 12.2815 21.2796 12.2151 20.6743C12.0653 19.3111 12.298 17.957 12.8882 16.7582C13.7367 15.0326 15.461 13.9604 17.3882 13.9604C18.278 13.9604 19.1352 14.1914 19.8929 14.6325C20.6201 14.2541 21.4324 14.0558 22.2675 14.0558C24.1927 14.0558 25.904 15.107 26.7337 16.7991C27.2859 17.9248 27.578 19.1802 27.578 20.4293V22.2523C27.578 22.5251 27.4201 22.7732 27.1731 22.8891C26.9259 23.0049 26.6342 22.9671 26.4248 22.7925L24.8059 21.4435C24.2896 21.013 23.6388 20.8294 22.9736 20.9257C22.3084 21.0222 21.7367 21.3835 21.3637 21.9427L20.4286 23.3454C20.2982 23.541 20.0787 23.6585 19.8436 23.6585ZM16.4891 19.6654C16.6327 19.6654 16.7768 19.6736 16.9209 19.6903C18.0162 19.8166 18.9953 20.4154 19.6068 21.3327L19.8436 21.6878L20.1937 21.1626C20.7822 20.2799 21.7219 19.6863 22.7718 19.5341C23.8217 19.3818 24.8913 19.6841 25.7063 20.3632L26.1717 20.751V20.4293C26.1717 19.3937 25.9295 18.3525 25.4712 17.4183C24.8795 16.2117 23.652 15.462 22.2675 15.462C21.5459 15.462 20.8494 15.6645 20.2532 16.0476C20.0113 16.2029 19.6991 16.1954 19.4651 16.0284C18.8578 15.5955 18.1396 15.3666 17.3882 15.3666C16.0011 15.3666 14.7602 16.1379 14.1499 17.3791C13.6781 18.3377 13.4924 19.4239 13.6129 20.5207C13.6279 20.6567 13.6446 20.7929 13.6631 20.929L13.9315 20.6774C14.63 20.0228 15.5437 19.6654 16.4891 19.6654Z" fill="#75C94D" />
</svg>