<svg width="47" height="47" viewBox="0 0 47 47" fill="none" xmlns="http://www.w3.org/2000/svg">
  <path d="M43.473 25.3383L42.8378 24.4707C42.1518 23.5181 42.1349 22.2338 42.8124 21.2812L43.4307 20.4051C44.3792 19.0613 43.9388 17.19 42.4906 16.4161L41.542 15.9057C40.5087 15.3529 39.9498 14.1961 40.1446 13.0394L40.3224 11.9762C40.5934 10.3517 39.3908 8.85473 37.7477 8.78668L36.6806 8.74416C35.5118 8.69312 34.504 7.90212 34.1822 6.77089L33.8857 5.73322C33.4284 4.1512 31.7006 3.33468 30.1931 3.98109L29.2107 4.40637C28.1351 4.87417 26.8901 4.59349 26.1024 3.71742L25.391 2.91791C24.29 1.68462 22.3759 1.70163 21.3003 2.94343L20.5974 3.75145C19.8267 4.63601 18.5817 4.93371 17.5061 4.48292L16.5152 4.07465C14.9991 3.44525 13.2799 4.2958 12.8479 5.88632L12.5684 6.92399C12.2636 8.05521 11.2642 8.86323 10.0954 8.93128L9.02827 8.99082C7.39369 9.08438 6.20798 10.5984 6.50441 12.2143L6.6992 13.269C6.91094 14.4258 6.36043 15.5825 5.34411 16.1524L4.40402 16.6712C2.9727 17.4707 2.5577 19.3504 3.52321 20.6773L4.15841 21.5448C4.84442 22.4975 4.86136 23.7818 4.18381 24.7344L3.56555 25.6105C2.61699 26.9543 3.05739 28.8255 4.50565 29.5995L5.45421 30.1099C6.48747 30.6627 7.04645 31.8195 6.85165 32.9762L6.6738 34.0394C6.40278 35.6639 7.60542 37.1609 9.24847 37.2289L10.3156 37.2715C11.4844 37.3225 12.4922 38.1135 12.8141 39.2447L13.1105 40.2824C13.5678 41.8644 15.2956 42.6809 16.8031 42.0345L17.7855 41.6093C18.8612 41.1415 20.1061 41.4221 20.8938 42.2982L21.6052 43.0977C22.6978 44.3225 24.6118 44.3055 25.6874 43.0637L26.3904 42.2557C27.1611 41.3711 28.4061 41.0734 29.4817 41.5242L30.4726 41.9325C31.9886 42.5619 33.7079 41.7113 34.1398 40.1208L34.4193 39.0831C34.7242 37.9519 35.7236 37.1439 36.8923 37.0758L37.9595 37.0163C39.5941 36.9227 40.7798 35.4088 40.4833 33.7927L40.2885 32.738C40.0768 31.5813 40.6273 30.4246 41.6436 29.8547L42.5837 29.3359C44.0235 28.5449 44.4385 26.6651 43.473 25.3383Z" fill="#FFF000" />
  <path d="M18.6972 26.9991H16.9394L13.5176 21.3858V26.9991H11.7598V18.4678H13.5176L16.9453 24.0928V18.4678H18.6972V26.9991ZM25.3652 23.3018H21.9902V25.587H25.9511V26.9991H20.2324V18.4678H25.9394V19.8917H21.9902V21.9249H25.3652V23.3018ZM33.6269 24.5381L34.7754 18.4678H36.5273L34.6347 26.9991H32.8652L31.4765 21.2921L30.0879 26.9991H28.3183L26.4258 18.4678H28.1777L29.332 24.5264L30.7383 18.4678H32.2265L33.6269 24.5381Z" fill="#111111" />
</svg>