<svg width="22" height="22" viewBox="0 0 22 22" fill="none" xmlns="http://www.w3.org/2000/svg">
  <g clip-path="url(#clip0_3301_240)">
    <path d="M9.17028 18.3396C11.2049 18.3392 13.1809 17.6581 14.7836 16.4048L19.8227 21.4436L21.4436 19.8228L16.4045 14.784C17.6585 13.1812 18.3401 11.2048 18.3406 9.16979C18.3406 4.1138 14.2265 0 9.17028 0C4.11402 0 0 4.1138 0 9.16979C0 14.2258 4.11402 18.3396 9.17028 18.3396ZM9.17028 2.29245C12.9633 2.29245 16.048 5.37694 16.048 9.16979C16.048 12.9627 12.9633 16.0471 9.17028 16.0471C5.37723 16.0471 2.29257 12.9627 2.29257 9.16979C2.29257 5.37694 5.37723 2.29245 9.17028 2.29245Z" fill="#F17E00" />
  </g>
  <defs>
    <clipPath id="clip0_3301_240">
      <rect width="22" height="22" rx="8" fill="white" />
    </clipPath>
  </defs>
</svg>